<svg xmlns="http://www.w3.org/2000/svg" viewBox="0 0 24 24"><defs><clipPath id="prefix__clip-path"><path id="prefix__Rectangle_101" d="M0 0H24V24H0z" data-name="Rectangle 101" transform="translate(58 3640)" style="stroke:#707070;fill:#fff"></path></clipPath></defs><g id="prefix__Mask_Group_17" data-name="Mask Group 17" transform="translate(-58 -3640)"><g id="prefix__local_phone-24px" transform="translate(58 3640)"><path id="prefix__Path_17" d="M0 0h24v24H0z" data-name="Path 17" style="fill:none"></path><path id="prefix__Path_18" d="M6.658 4.849a14.46 14.46 0 0 0 .529 3.042L5.777 9.3a17.412 17.412 0 0 1-.893-4.451h1.774m11.58 14.117a14.977 14.977 0 0 0 3.054.529v1.75a18.117 18.117 0 0 1-4.463-.881l1.409-1.4M7.785 2.5H3.674A1.178 1.178 0 0 0 2.5 3.674 19.964 19.964 0 0 0 22.466 23.64a1.178 1.178 0 0 0 1.174-1.174v-4.1a1.178 1.178 0 0 0-1.174-1.174 13.4 13.4 0 0 1-4.193-.669.986.986 0 0 0-.364-.059 1.2 1.2 0 0 0-.834.341l-2.584 2.584a17.791 17.791 0 0 1-7.74-7.74l2.584-2.584a1.179 1.179 0 0 0 .294-1.2 13.342 13.342 0 0 1-.669-4.193A1.178 1.178 0 0 0 7.785 2.5z" data-name="Path 18" transform="translate(-1.07 -1.07)" style="fill:#212121"></path></g></g></svg>